P1
# image cree par Albin et Tobias
6 6
1 1 1 1 1 1
1 0 1 0 1 1
1 1 0 1 1 1
0 0 1 0 0 0
0 1 0 1 0 0
0 1 0 0 0 0
