P1
# image par Albin & Tobias
6 6
1 1 0 0 1 1
1 0 1 0 1 1
1 1 0 0 1 1
1 1 1 1 1 1
1 0 0 0 0 1
1 1 1 1 1 1
